<svg xmlns="http://www.w3.org/2000/svg" xmlns:xlink="http://www.w3.org/1999/xlink">

<symbol id="itchio" fill-rule="evenodd" clip-rule="evenodd" stroke-linejoin="round" stroke-miterlimit="1.414" viewBox="0 0 16 16"><path d="M 2.0859754,1.6955854 C 1.3880638,2.1099766 0.01304142,3.6896188 0,4.1038795 v 0.685718 c 0,0.8692108 0.81248059,1.6331773 1.5501686,1.6331773 0.8857734,0 1.6237875,-0.7341017 1.6238527,-1.6053991 0,0.8712974 0.7127137,1.6053991 1.5985523,1.6053991 0.8859038,0 1.5757298,-0.7341017 1.5757298,-1.6053991 0,0.8712974 0.757837,1.6053991 1.6436756,1.6053991 H 8.00802 c 0.8859038,0 1.6437408,-0.7341017 1.6437408,-1.6053991 0,0.8712974 0.6898912,1.6053991 1.5756642,1.6053991 0.885839,0 1.598553,-0.7341017 1.598553,-1.6053991 0,0.8712974 0.738144,1.6053991 1.623852,1.6053991 0.737688,0 1.550169,-0.7638361 1.550169,-1.6331773 V 4.1038795 C 15.986958,3.6895536 14.611935,2.1098462 13.914154,1.6955854 11.744974,1.6194235 10.241168,1.6062516 7.9999343,1.6065777 5.7587659,1.6067733 2.7032912,1.6417895 2.085845,1.6955854 Z m 4.2511124,4.3178191 a 1.8274293,1.8274293 0 0 1 -0.31169,0.4013498 C 5.6910157,6.7417028 5.232675,6.9443665 4.7273851,6.9443665 A 1.8572289,1.8572289 0 0 1 3.4266336,6.4144935 C 3.3054788,6.2958165 3.2134064,6.1689235 3.1290936,6.0211642 L 3.1287023,6.021425 C 3.0444548,6.1694452 2.927082,6.296273 2.8056663,6.4150803 A 1.8584026,1.8584026 0 0 1 1.5049149,6.9445621 c -0.060903,0 -0.1242848,-0.016823 -0.1755375,-0.034429 C 1.2581712,7.651668 1.2281107,8.3603388 1.217482,8.87704 l -1.305e-4,0.00293 c -0.0013,0.2623934 -0.00261,0.4781637 -0.00391,0.7779208 C 1.2271355,11.213733 1.0593571,14.700618 1.8994203,15.557374 3.2012151,15.860913 5.5966634,15.999152 7.9998715,16 h 3.912e-4 c 2.4031423,-8.48e-4 4.7985913,-0.139087 6.1003853,-0.442626 0.840063,-0.856822 0.672286,-4.343707 0.685979,-5.8995484 -0.0014,-0.2996919 -0.0026,-0.5154622 -0.0039,-0.7779208 l -1.96e-4,-0.00293 c -0.01056,-0.5168316 -0.04062,-1.2254372 -0.11183,-1.9669725 -0.05125,0.017606 -0.114569,0.034429 -0.175538,0.034429 A 1.8584026,1.8584026 0 0 1 13.194398,6.4149499 C 13.072982,6.2961426 12.955609,6.16938 12.871297,6.0212946 l -3.92e-4,-2.608e-4 c -0.08438,0.1477593 -0.176385,0.2747175 -0.29754,0.3933293 a 1.8570985,1.8570985 0 0 1 -1.300686,0.5298077 c -0.505225,0 -0.963631,-0.2027941 -1.2980126,-0.5296773 A 1.8274293,1.8274293 0 0 1 9.6629764,6.0131437 1.825147,1.825147 0 0 1 9.3541556,6.4144935 1.8577506,1.8577506 0 0 1 8.0532737,6.944236 c -0.017606,0 -0.035212,-7.824e-4 -0.052818,-0.0013 h -4.564e-4 c -0.017606,5.217e-4 -0.035212,0.0013 -0.053013,0.0013 A 1.8577506,1.8577506 0 0 1 6.6461043,6.4145587 1.8252774,1.8252774 0 0 1 6.3372834,6.0132089 Z M 5.0012549,7.7407409 5.0011245,7.741393 h 9.781e-4 c 0.5290253,0.00111 0.9989729,0 1.5812724,0.6355085 0.4582756,-0.048058 0.9371566,-0.072054 1.4164289,-0.071337 h 3.912e-4 C 8.4794674,8.3049128 8.9583484,8.3288438 9.4166892,8.3769015 9.9989887,7.7413278 10.468936,7.7424363 10.997962,7.741393 h 9.12e-4 l -1.3e-4,-6.521e-4 c 0.249939,0 1.24976,0 1.946432,1.9566697 l 0.748317,2.6842504 c 0.554521,1.996903 -0.177559,2.045743 -1.090719,2.047503 -1.354221,-0.0504 -2.104038,-1.033858 -2.104038,-2.017181 -0.749621,0.12285 -1.6241135,0.184275 -2.4986061,0.18434 h -3.912e-4 c -0.8745578,0 -1.7490503,-0.06149 -2.4986061,-0.18434 0,0.983323 -0.7498817,1.966776 -2.1040378,2.017181 -0.9131604,-0.0018 -1.6451754,-0.05053 -1.0906541,-2.047503 L 3.0549531,9.6974758 C 3.7516259,7.7408061 4.7514465,7.7408061 5.0013853,7.7408061 Z m 2.998549,1.5377141 v 3.912e-4 c -0.0013,0.0013 -1.4256231,1.3093588 -1.6816914,1.7746118 l 0.9327225,-0.03736 v 0.813393 c 0,0.03808 0.3742888,0.02256 0.7489689,0.0052 h 3.912e-4 c 0.3745497,0.01735 0.7489037,0.03286 0.7489037,-0.0052 v -0.813393 l 0.9327225,0.03736 C 9.4256878,10.588205 8.0001299,9.2788462 8.0001299,9.2788462 V 9.278455 l -1.956e-4,1.304e-4 z"/></symbol>
<symbol id="github" fill-rule="evenodd" clip-rule="evenodd" stroke-linejoin="round" stroke-miterlimit="1.414" viewBox="0 0 16 16"><path d="M8 0C3.58 0 0 3.582 0 8c0 3.535 2.292 6.533 5.47 7.59.4.075.547-.172.547-.385 0-.19-.007-.693-.01-1.36-2.226.483-2.695-1.073-2.695-1.073-.364-.924-.89-1.17-.89-1.17-.725-.496.056-.486.056-.486.803.056 1.225.824 1.225.824.714 1.223 1.873.87 2.33.665.072-.517.278-.87.507-1.07-1.777-.2-3.644-.888-3.644-3.953 0-.873.31-1.587.823-2.147-.09-.202-.36-1.015.07-2.117 0 0 .67-.215 2.2.82.64-.178 1.32-.266 2-.27.68.004 1.36.092 2 .27 1.52-1.035 2.19-.82 2.19-.82.43 1.102.16 1.915.08 2.117.51.56.82 1.274.82 2.147 0 3.073-1.87 3.75-3.65 3.947.28.24.54.73.54 1.48 0 1.07-.01 1.93-.01 2.19 0 .21.14.46.55.38C13.71 14.53 16 11.53 16 8c0-4.418-3.582-8-8-8"/>
</symbol>
<symbol id="stackoverflow" fill-rule="evenodd" clip-rule="evenodd" stroke-linejoin="round" stroke-miterlimit="1.414" viewBox="0 0 16 16"><path d="M12.566,14.12v-4.08h1.359v5.44H1.686v-5.44h1.36v4.08H12.566z M10.336,0.52L9.269,1.315l3.978,5.358l1.068-0.803 L10.336,0.52z M4.406,12.76h6.8V11.4h-6.8V12.76z M12.158,7.945L7.03,3.675l0.851-1.02l5.128,4.271L12.158,7.945z M5.357,6.646 l6.053,2.815l0.558-1.21L5.916,5.437L5.357,6.64V6.646z M11.227,10.91L4.494,9.774l0.272-1.306l6.549,1.306L11.227,10.91z"/>
</symbol>
<symbol id="twitter" fill-rule="evenodd" clip-rule="evenodd" stroke-linejoin="round" stroke-miterlimit="1.414" viewBox="0 0 16 16"><path d="M16 3.038c-.59.26-1.22.437-1.885.517.677-.407 1.198-1.05 1.443-1.816-.634.37-1.337.64-2.085.79-.598-.64-1.45-1.04-2.396-1.04-1.812 0-3.282 1.47-3.282 3.28 0 .26.03.51.085.75-2.728-.13-5.147-1.44-6.766-3.42C.83 2.58.67 3.14.67 3.75c0 1.14.58 2.143 1.46 2.732-.538-.017-1.045-.165-1.487-.41v.04c0 1.59 1.13 2.918 2.633 3.22-.276.074-.566.114-.865.114-.21 0-.41-.02-.61-.058.42 1.304 1.63 2.253 3.07 2.28-1.12.88-2.54 1.404-4.07 1.404-.26 0-.52-.015-.78-.045 1.46.93 3.18 1.474 5.04 1.474 6.04 0 9.34-5 9.34-9.33 0-.14 0-.28-.01-.42.64-.46 1.2-1.04 1.64-1.7z"/>
</symbol>
<symbol id="youtube" fill-rule="evenodd" clip-rule="evenodd" stroke-linejoin="round" stroke-miterlimit="1.414" viewBox="0 0 16 16"><path d="M0 7.345c0-1.294.16-2.59.16-2.59s.156-1.1.636-1.587c.608-.637 1.408-.617 1.764-.684C3.84 2.36 8 2.324 8 2.324s3.362.004 5.6.166c.314.038.996.04 1.604.678.48.486.636 1.588.636 1.588S16 6.05 16 7.346v1.258c0 1.296-.16 2.59-.16 2.59s-.156 1.102-.636 1.588c-.608.638-1.29.64-1.604.678-2.238.162-5.6.166-5.6.166s-4.16-.037-5.44-.16c-.356-.067-1.156-.047-1.764-.684-.48-.487-.636-1.587-.636-1.587S0 9.9 0 8.605v-1.26zm6.348 2.73V5.58l4.323 2.255-4.32 2.24z"/>
</symbol>
<symbol id="linkedin" fill-rule="evenodd" clip-rule="evenodd" stroke-linejoin="round" stroke-miterlimit="1.414" viewBox="0 0 16 16"><path d="M13.632 13.635h-2.37V9.922c0-.886-.018-2.025-1.234-2.025-1.235 0-1.424.964-1.424 1.96v3.778h-2.37V6H8.51v1.04h.03c.318-.6 1.092-1.233 2.247-1.233 2.4 0 2.845 1.58 2.845 3.637v4.188zM3.558 4.955c-.762 0-1.376-.617-1.376-1.377 0-.758.614-1.375 1.376-1.375.76 0 1.376.617 1.376 1.375 0 .76-.617 1.377-1.376 1.377zm1.188 8.68H2.37V6h2.376v7.635zM14.816 0H1.18C.528 0 0 .516 0 1.153v13.694C0 15.484.528 16 1.18 16h13.635c.652 0 1.185-.516 1.185-1.153V1.153C16 .516 15.467 0 14.815 0z"/>
</symbol>
<symbol id="rss" fill-rule="evenodd" clip-rule="evenodd" stroke-linejoin="round" stroke-miterlimit="1.414" viewBox="0 0 16 16"><path d="M12.8 16C12.8 8.978 7.022 3.2 0 3.2V0c8.777 0 16 7.223 16 16h-3.2zM2.194 11.61c1.21 0 2.195.985 2.195 2.196 0 1.21-.99 2.194-2.2 2.194C.98 16 0 15.017 0 13.806c0-1.21.983-2.195 2.194-2.195zM10.606 16h-3.11c0-4.113-3.383-7.497-7.496-7.497v-3.11c5.818 0 10.606 4.79 10.606 10.607z"/>
</symbol>
</svg>
