<svg xmlns="http://www.w3.org/2000/svg" xmlns:xlink="http://www.w3.org/1999/xlink">

<symbol id="itchio" fill-rule="evenodd" clip-rule="evenodd" stroke-linejoin="round" stroke-miterlimit="1.414" viewBox="0 0 16 16"><path d="M 2.0859754,1.6955854 C 1.3880638,2.1099766 0.01304142,3.6896188 0,4.1038795 v 0.685718 c 0,0.8692108 0.81248059,1.6331773 1.5501686,1.6331773 0.8857734,0 1.6237875,-0.7341017 1.6238527,-1.6053991 0,0.8712974 0.7127137,1.6053991 1.5985523,1.6053991 0.8859038,0 1.5757298,-0.7341017 1.5757298,-1.6053991 0,0.8712974 0.757837,1.6053991 1.6436756,1.6053991 H 8.00802 c 0.8859038,0 1.6437408,-0.7341017 1.6437408,-1.6053991 0,0.8712974 0.6898912,1.6053991 1.5756642,1.6053991 0.885839,0 1.598553,-0.7341017 1.598553,-1.6053991 0,0.8712974 0.738144,1.6053991 1.623852,1.6053991 0.737688,0 1.550169,-0.7638361 1.550169,-1.6331773 V 4.1038795 C 15.986958,3.6895536 14.611935,2.1098462 13.914154,1.6955854 11.744974,1.6194235 10.241168,1.6062516 7.9999343,1.6065777 5.7587659,1.6067733 2.7032912,1.6417895 2.085845,1.6955854 Z m 4.2511124,4.3178191 a 1.8274293,1.8274293 0 0 1 -0.31169,0.4013498 C 5.6910157,6.7417028 5.232675,6.9443665 4.7273851,6.9443665 A 1.8572289,1.8572289 0 0 1 3.4266336,6.4144935 C 3.3054788,6.2958165 3.2134064,6.1689235 3.1290936,6.0211642 L 3.1287023,6.021425 C 3.0444548,6.1694452 2.927082,6.296273 2.8056663,6.4150803 A 1.8584026,1.8584026 0 0 1 1.5049149,6.9445621 c -0.060903,0 -0.1242848,-0.016823 -0.1755375,-0.034429 C 1.2581712,7.651668 1.2281107,8.3603388 1.217482,8.87704 l -1.305e-4,0.00293 c -0.0013,0.2623934 -0.00261,0.4781637 -0.00391,0.7779208 C 1.2271355,11.213733 1.0593571,14.700618 1.8994203,15.557374 3.2012151,15.860913 5.5966634,15.999152 7.9998715,16 h 3.912e-4 c 2.4031423,-8.48e-4 4.7985913,-0.139087 6.1003853,-0.442626 0.840063,-0.856822 0.672286,-4.343707 0.685979,-5.8995484 -0.0014,-0.2996919 -0.0026,-0.5154622 -0.0039,-0.7779208 l -1.96e-4,-0.00293 c -0.01056,-0.5168316 -0.04062,-1.2254372 -0.11183,-1.9669725 -0.05125,0.017606 -0.114569,0.034429 -0.175538,0.034429 A 1.8584026,1.8584026 0 0 1 13.194398,6.4149499 C 13.072982,6.2961426 12.955609,6.16938 12.871297,6.0212946 l -3.92e-4,-2.608e-4 c -0.08438,0.1477593 -0.176385,0.2747175 -0.29754,0.3933293 a 1.8570985,1.8570985 0 0 1 -1.300686,0.5298077 c -0.505225,0 -0.963631,-0.2027941 -1.2980126,-0.5296773 A 1.8274293,1.8274293 0 0 1 9.6629764,6.0131437 1.825147,1.825147 0 0 1 9.3541556,6.4144935 1.8577506,1.8577506 0 0 1 8.0532737,6.944236 c -0.017606,0 -0.035212,-7.824e-4 -0.052818,-0.0013 h -4.564e-4 c -0.017606,5.217e-4 -0.035212,0.0013 -0.053013,0.0013 A 1.8577506,1.8577506 0 0 1 6.6461043,6.4145587 1.8252774,1.8252774 0 0 1 6.3372834,6.0132089 Z M 5.0012549,7.7407409 5.0011245,7.741393 h 9.781e-4 c 0.5290253,0.00111 0.9989729,0 1.5812724,0.6355085 0.4582756,-0.048058 0.9371566,-0.072054 1.4164289,-0.071337 h 3.912e-4 C 8.4794674,8.3049128 8.9583484,8.3288438 9.4166892,8.3769015 9.9989887,7.7413278 10.468936,7.7424363 10.997962,7.741393 h 9.12e-4 l -1.3e-4,-6.521e-4 c 0.249939,0 1.24976,0 1.946432,1.9566697 l 0.748317,2.6842504 c 0.554521,1.996903 -0.177559,2.045743 -1.090719,2.047503 -1.354221,-0.0504 -2.104038,-1.033858 -2.104038,-2.017181 -0.749621,0.12285 -1.6241135,0.184275 -2.4986061,0.18434 h -3.912e-4 c -0.8745578,0 -1.7490503,-0.06149 -2.4986061,-0.18434 0,0.983323 -0.7498817,1.966776 -2.1040378,2.017181 -0.9131604,-0.0018 -1.6451754,-0.05053 -1.0906541,-2.047503 L 3.0549531,9.6974758 C 3.7516259,7.7408061 4.7514465,7.7408061 5.0013853,7.7408061 Z m 2.998549,1.5377141 v 3.912e-4 c -0.0013,0.0013 -1.4256231,1.3093588 -1.6816914,1.7746118 l 0.9327225,-0.03736 v 0.813393 c 0,0.03808 0.3742888,0.02256 0.7489689,0.0052 h 3.912e-4 c 0.3745497,0.01735 0.7489037,0.03286 0.7489037,-0.0052 v -0.813393 l 0.9327225,0.03736 C 9.4256878,10.588205 8.0001299,9.2788462 8.0001299,9.2788462 V 9.278455 l -1.956e-4,1.304e-4 z"/></symbol>
<symbol id="github" fill-rule="evenodd" clip-rule="evenodd" stroke-linejoin="round" stroke-miterlimit="1.414" viewBox="0 0 16 16"><path d="M8 0C3.58 0 0 3.582 0 8c0 3.535 2.292 6.533 5.47 7.59.4.075.547-.172.547-.385 0-.19-.007-.693-.01-1.36-2.226.483-2.695-1.073-2.695-1.073-.364-.924-.89-1.17-.89-1.17-.725-.496.056-.486.056-.486.803.056 1.225.824 1.225.824.714 1.223 1.873.87 2.33.665.072-.517.278-.87.507-1.07-1.777-.2-3.644-.888-3.644-3.953 0-.873.31-1.587.823-2.147-.09-.202-.36-1.015.07-2.117 0 0 .67-.215 2.2.82.64-.178 1.32-.266 2-.27.68.004 1.36.092 2 .27 1.52-1.035 2.19-.82 2.19-.82.43 1.102.16 1.915.08 2.117.51.56.82 1.274.82 2.147 0 3.073-1.87 3.75-3.65 3.947.28.24.54.73.54 1.48 0 1.07-.01 1.93-.01 2.19 0 .21.14.46.55.38C13.71 14.53 16 11.53 16 8c0-4.418-3.582-8-8-8"/>
</symbol>
<symbol id="bitbucket" fill-rule="evenodd" clip-rule="evenodd" stroke-linejoin="round" stroke-miterlimit="1.414" viewBox="0 0 16 16"><g transform="translate(-0.04645242,1.1056143)">
   <path d="M 0.75,0 C 0.60229113,-0.00187166 0.46129978,0.06052238 0.36484679,0.17044495 0.26839379,0.28036752 0.22635233,0.42656667 0.25,0.56982456 L 2.3725,13.228772 c 0.054587,0.319764 0.3349916,0.554858 0.665,0.557544 H 13.22 c 0.247696,0.0031 0.460386,-0.172393 0.5,-0.412632 L 15.8425,0.5722807 C 15.866741,0.42992008 15.826027,0.28428937 15.731171,0.17406706 15.636314,0.06384476 15.496916,1.8669196e-4 15.35,0 Z m 8.9375,9.1491228 h -3.25 l -0.88,-4.514386 h 4.9175 z"/>
</g></symbol>
<symbol id="stackoverflow" fill-rule="evenodd" clip-rule="evenodd" stroke-linejoin="round" stroke-miterlimit="1.414" viewBox="0 0 16 16"><path d="M12.566,14.12v-4.08h1.359v5.44H1.686v-5.44h1.36v4.08H12.566z M10.336,0.52L9.269,1.315l3.978,5.358l1.068-0.803 L10.336,0.52z M4.406,12.76h6.8V11.4h-6.8V12.76z M12.158,7.945L7.03,3.675l0.851-1.02l5.128,4.271L12.158,7.945z M5.357,6.646 l6.053,2.815l0.558-1.21L5.916,5.437L5.357,6.64V6.646z M11.227,10.91L4.494,9.774l0.272-1.306l6.549,1.306L11.227,10.91z"/>
</symbol>
<symbol id="twitter" fill-rule="evenodd" clip-rule="evenodd" stroke-linejoin="round" stroke-miterlimit="1.414" viewBox="0 0 16 16"><path d="M16 3.038c-.59.26-1.22.437-1.885.517.677-.407 1.198-1.05 1.443-1.816-.634.37-1.337.64-2.085.79-.598-.64-1.45-1.04-2.396-1.04-1.812 0-3.282 1.47-3.282 3.28 0 .26.03.51.085.75-2.728-.13-5.147-1.44-6.766-3.42C.83 2.58.67 3.14.67 3.75c0 1.14.58 2.143 1.46 2.732-.538-.017-1.045-.165-1.487-.41v.04c0 1.59 1.13 2.918 2.633 3.22-.276.074-.566.114-.865.114-.21 0-.41-.02-.61-.058.42 1.304 1.63 2.253 3.07 2.28-1.12.88-2.54 1.404-4.07 1.404-.26 0-.52-.015-.78-.045 1.46.93 3.18 1.474 5.04 1.474 6.04 0 9.34-5 9.34-9.33 0-.14 0-.28-.01-.42.64-.46 1.2-1.04 1.64-1.7z"/>
</symbol>
<symbol id="mastodon" fill-rule="evenodd" clip-rule="evenodd" stroke-linejoin="round" stroke-miterlimit="1.414" viewBox="0 0 16 16"><path d="M15.195,5.352c0-3.347-2.193-4.328-2.193-4.328c-1.104-0.508-3.004-0.721-4.977-0.737H7.977 c-1.973,0.016-3.87,0.229-4.976,0.737c0,0-2.193,0.981-2.193,4.328c0,0.766-0.015,1.683,0.009,2.654c0.08,3.272,0.6,6.499,3.626,7.3 c1.396,0.369,2.594,0.446,3.559,0.394c1.75-0.097,2.732-0.624,2.732-0.624l-0.058-1.27c0,0-1.25,0.395-2.655,0.346 c-1.391-0.047-2.86-0.149-3.085-1.857c-0.021-0.15-0.031-0.312-0.031-0.479c0,0,1.365,0.334,3.096,0.413 c1.059,0.049,2.051-0.062,3.059-0.182c1.934-0.231,3.616-1.422,3.828-2.51C15.224,7.821,15.195,5.352,15.195,5.352z M12.609,9.664 h-1.606V5.73c0-0.83-0.349-1.25-1.047-1.25c-0.772,0-1.158,0.5-1.158,1.486V8.12H7.202V5.966c0-0.987-0.387-1.486-1.158-1.486 c-0.698,0-1.046,0.421-1.046,1.25v3.933H3.391V5.611c0-0.829,0.211-1.487,0.634-1.974c0.437-0.487,1.009-0.736,1.719-0.736 c0.822,0,1.444,0.315,1.855,0.947L8,4.519l0.4-0.67c0.412-0.632,1.033-0.947,1.855-0.947c0.71,0,1.282,0.25,1.72,0.736 c0.423,0.487,0.635,1.145,0.635,1.974V9.664z"/>
</symbol>
<symbol id="youtube" fill-rule="evenodd" clip-rule="evenodd" stroke-linejoin="round" stroke-miterlimit="1.414" viewBox="0 0 16 16"><path d="M0 7.345c0-1.294.16-2.59.16-2.59s.156-1.1.636-1.587c.608-.637 1.408-.617 1.764-.684C3.84 2.36 8 2.324 8 2.324s3.362.004 5.6.166c.314.038.996.04 1.604.678.48.486.636 1.588.636 1.588S16 6.05 16 7.346v1.258c0 1.296-.16 2.59-.16 2.59s-.156 1.102-.636 1.588c-.608.638-1.29.64-1.604.678-2.238.162-5.6.166-5.6.166s-4.16-.037-5.44-.16c-.356-.067-1.156-.047-1.764-.684-.48-.487-.636-1.587-.636-1.587S0 9.9 0 8.605v-1.26zm6.348 2.73V5.58l4.323 2.255-4.32 2.24z"/>
</symbol>
<symbol id="linkedin" fill-rule="evenodd" clip-rule="evenodd" stroke-linejoin="round" stroke-miterlimit="1.414" viewBox="0 0 16 16"><path d="M13.632 13.635h-2.37V9.922c0-.886-.018-2.025-1.234-2.025-1.235 0-1.424.964-1.424 1.96v3.778h-2.37V6H8.51v1.04h.03c.318-.6 1.092-1.233 2.247-1.233 2.4 0 2.845 1.58 2.845 3.637v4.188zM3.558 4.955c-.762 0-1.376-.617-1.376-1.377 0-.758.614-1.375 1.376-1.375.76 0 1.376.617 1.376 1.375 0 .76-.617 1.377-1.376 1.377zm1.188 8.68H2.37V6h2.376v7.635zM14.816 0H1.18C.528 0 0 .516 0 1.153v13.694C0 15.484.528 16 1.18 16h13.635c.652 0 1.185-.516 1.185-1.153V1.153C16 .516 15.467 0 14.815 0z"/>
</symbol>
<symbol id="kofi" fill-rule="evenodd" clip-rule="evenodd" stroke-linejoin="round" stroke-miterlimit="1.414" viewBox="0 0 16 16"><path d="M 0.84474416,11.296927 C 0.78528036,8.7511915 0.81359946,4.0572676 0.81480886,3.8578884 V 3.732657 c 0.00174,-0.011334 0.030342,-0.1738212 0.1380639,-0.1738212 L 11.916757,3.559692 c 0.70038,0 1.387167,0.2114303 1.934178,0.5958685 0.004,0.00279 0.0077,0.00566 0.01177,0.00809 0.659281,0.4287792 1.082463,1.0917638 1.257451,1.9701495 0.203778,1.0361315 -0.02633,2.0052111 -0.648472,2.7279806 -0.701129,0.8146299 -1.836998,1.2493174 -3.116818,1.1917474 -0.109274,-0.0049 -0.217691,0.03519 -0.296891,0.111168 -0.0792,0.07588 -0.124685,0.182266 -0.124685,0.291754 0,1.09659 -0.389683,1.729757 -1.1897362,1.935034 -0.07953,0.01905 -0.136843,0.01905 -0.25104,0.01905 l -0.0081,2.14e-4 c -2.1066609,0.02633 -6.176622,0.02997 -7.3738601,0.02997 h -0.043528 c -0.00298,0 -0.3025631,-0.0057 -0.6017549,-0.1508 C 1.0846327,12.105404 0.87583526,11.771269 0.84463706,11.296713 Z M 15.91226,5.980486 v -5.673e-4 l -5.35e-4,-0.00223 -6.42e-4,-0.00284 C 15.638701,4.6099082 14.889838,3.8710741 14.308793,3.4911631 13.628427,3.0149285 12.778746,2.75265 11.91665,2.75265 L 0.95279776,2.7520935 c -0.61664439,0 -0.94507469,0.5680631 -0.94510252,0.9780484 V 3.855384 c -3.0716e-4,0.04829 -0.0303376,4.8772706 0.0303377,7.468515 1.4555e-4,0.0049 3.6817e-4,0.01017 6.7961e-4,0.01541 0.060838,0.984747 0.61782591,1.455341 1.07438915,1.676887 0.471686,0.228929 0.9334506,0.231711 0.9529294,0.231711 h 0.00191 c 0.2050515,0 5.0491225,-3.21e-4 7.4236387,-0.0304 0.137903,0 0.268154,0 0.441686,-0.04174 l 0.0061,-0.0014 c 0.7225122,-0.184514 1.2372022,-0.607481 1.5298112,-1.25638 0.138385,-0.306631 0.22208,-0.652325 0.254937,-1.054423 0.662706,-0.01691 1.286134,-0.147696 1.853908,-0.389683 0.598384,-0.254937 1.104725,-0.6203235 1.50511,-1.0856309 0.786856,-0.9142929 1.081072,-2.1242885 0.828918,-3.4078326"/>
<path d="M 11.776017,8.2067277 V 5.4065365 h 0.329641 c 0.371809,0 0.702306,0.1521698 0.930914,0.4287791 l 0.0061,0.00728 c 0.191149,0.2196071 0.284154,0.4981429 0.284154,0.8513936 -3.21e-4,0.8056613 -0.295392,1.2493171 -0.987102,1.4809754 -0.180233,0.019018 -0.369455,0.029528 -0.563815,0.031551 z m -0.431636,0.79833 c 0.01413,8.669e-4 0.144913,0.00971 0.349654,0.00971 0.264462,0 0.525392,-0.01416 0.775298,-0.041836 0.02622,-0.00284 0.05223,-0.0085 0.07749,-0.016172 1.053031,-0.3344462 1.586771,-1.0954455 1.586771,-2.262438 4.28e-4,-0.5473 -0.161181,-1.0108948 -0.477872,-1.3765285 -0.384438,-0.46276 -0.934767,-0.7179961 -1.550061,-0.7179961 h -0.733129 c -0.222401,0 -0.403596,0.1811312 -0.403596,0.4035317 v 3.5993239 c 0,0.2111521 0.16482,0.3880878 0.375448,0.4026862"/>
<path d="m 5.7957451,10.80161 c 0.1277037,0.06379 0.1915341,0 0.1915341,0 0,0 1.7525116,-1.5938232 2.5495466,-2.5162501 C 9.2368629,7.4578224 9.2700731,6.0861102 8.0899699,5.5775644 6.8791716,5.0667496 5.8906024,6.1829475 5.8906024,6.1829475 5.0298119,5.2273853 3.7243489,5.2911301 3.118923,5.9271334 2.5134542,6.5634578 2.7356942,7.6490355 3.1826357,8.2850709 c 0.4138169,0.5748058 2.263123,2.2301381 2.5492362,2.4857161 0,-0.03318 0.033167,0 0.063873,0.03072"/>
</symbol>
<symbol id="rss" fill-rule="evenodd" clip-rule="evenodd" stroke-linejoin="round" stroke-miterlimit="1.414" viewBox="0 0 16 16"><path d="M12.8 16C12.8 8.978 7.022 3.2 0 3.2V0c8.777 0 16 7.223 16 16h-3.2zM2.194 11.61c1.21 0 2.195.985 2.195 2.196 0 1.21-.99 2.194-2.2 2.194C.98 16 0 15.017 0 13.806c0-1.21.983-2.195 2.194-2.195zM10.606 16h-3.11c0-4.113-3.383-7.497-7.496-7.497v-3.11c5.818 0 10.606 4.79 10.606 10.607z"/>
</symbol>
</svg>
